# xmcd
#
# Track frame offsets:
# 150
# 26146
# 51433
# 65796
# 86824
# 102984
# 127303
# 148226
#
# Disc length: 2215 seconds
#
#
# Revision: 0
# Processed by: cddbd v1.5.1PL0 Copyright (c) Steve Scherf et al.
# Submitted via: FreeRIP 2.90 
#
DISCID=8408a508
DTITLE=Jose Ramos - Just Call Me 'Zay
DYEAR=2002
DGENRE=Swing
TTITLE0=Jose's Blues
TTITLE1=T.H.U. Wit' U
TTITLE2=Sleepin' Here Standin'
TTITLE3=Let Me Love You Baby
TTITLE4=I Believe
TTITLE5=Big Rear Window
TTITLE6=Don't Look Any Further
TTITLE7=Jump Jive ' Wail
EXTD=
EXTT0=
EXTT1=
EXTT2=
EXTT3=
EXTT4=
EXTT5=
EXTT6=
EXTT7=
PLAYORDER=
